<?xml version="1.0" encoding="UTF-8"?>
<svg version="1.1" xmlns="http://www.w3.org/2000/svg" width="500" height="500">
<path d="M0 0 C1.15846436 0.00021149 2.31692871 0.00042297 3.51049805 0.00064087 C20.25105188 0.0312073 36.31928969 0.56713931 52.6875 4.375 C53.55987305 4.56223633 54.43224609 4.74947266 55.33105469 4.94238281 C87.56917372 11.87363826 119.3903889 25.75887425 146.03076172 45.19873047 C147.6967081 46.38153767 149.40291304 47.47373103 151.12890625 48.56640625 C151.97324219 49.16324219 152.81757813 49.76007812 153.6875 50.375 C153.6875 51.035 153.6875 51.695 153.6875 52.375 C154.24695313 52.62636719 154.80640625 52.87773438 155.3828125 53.13671875 C159.91379837 55.5711637 163.72145603 59.12608662 167.6875 62.375 C168.66976562 63.15037109 168.66976562 63.15037109 169.671875 63.94140625 C171.04869892 65.03958723 172.37501905 66.20067494 173.6875 67.375 C173.6875 68.035 173.6875 68.695 173.6875 69.375 C174.55375 69.74625 174.55375 69.74625 175.4375 70.125 C178.01689979 71.55799988 179.74871592 73.15924676 181.6875 75.375 C181.6875 76.035 181.6875 76.695 181.6875 77.375 C182.3475 77.375 183.0075 77.375 183.6875 77.375 C186.23505287 79.83992953 188.42749521 82.64725727 190.6875 85.375 C191.79544922 86.7053125 191.79544922 86.7053125 192.92578125 88.0625 C198.6875 95.10346359 198.6875 95.10346359 198.6875 97.375 C199.3475 97.375 200.0075 97.375 200.6875 97.375 C202.15425619 99.26169883 203.49207799 101.13892683 204.8125 103.125 C205.20993408 103.71337646 205.60736816 104.30175293 206.0168457 104.90795898 C206.84195293 106.13128083 207.66426675 107.35649105 208.48388672 108.58349609 C209.58945854 110.22907135 210.71751201 111.85948385 211.84765625 113.48828125 C215.80037823 119.23838741 219.17288975 125.02113948 222.1875 131.3125 C223.77060916 134.54468119 225.4971632 137.66948229 227.25 140.8125 C230.67000064 147.15966276 233.31186119 153.57956805 235.6875 160.375 C235.9880127 161.21434082 236.28852539 162.05368164 236.59814453 162.91845703 C244.75254696 185.79619673 251.00746101 209.42143141 250.98828125 233.84765625 C250.99256638 235.09139511 250.9968515 236.33513397 251.00126648 237.61656189 C251.00697169 240.23256832 251.00753842 242.8485906 251.00317383 245.46459961 C251.00002747 249.40311733 251.0234761 253.34087235 251.04882812 257.27929688 C251.08547565 271.57690453 250.53675185 285.34453143 247.6875 299.375 C247.45780518 300.51718994 247.22811035 301.65937988 246.99145508 302.83618164 C246.36594978 305.70171881 245.67619057 308.53673918 244.9375 311.375 C244.68291016 312.37063965 244.42832031 313.3662793 244.16601562 314.39208984 C241.57267073 324.25841711 238.35776337 333.86021781 234.6875 343.375 C234.44032227 344.0158252 234.19314453 344.65665039 233.93847656 345.31689453 C226.13264985 365.1848115 214.85679923 387.25253923 200.6875 403.375 C200.0275 403.375 199.3675 403.375 198.6875 403.375 C198.45417969 404.09042969 198.22085937 404.80585938 197.98046875 405.54296875 C196.45027295 408.89460607 194.52806021 411.01232449 192 413.6875 C188.96396313 416.93697419 185.95391931 420.18361277 183.0625 423.5625 C176.25078277 431.35637181 168.76210778 437.91734768 160.6875 444.375 C159.52729861 445.33561476 158.36850302 446.29792932 157.2109375 447.26171875 C149.01426564 454.03259766 140.55083959 459.89790407 131.41943359 465.33789062 C129.94177779 466.22273442 128.4789814 467.13231473 127.01953125 468.046875 C115.56587152 475.1838288 103.37385273 480.82205808 90.6875 485.375 C88.85251953 486.08076172 88.85251953 486.08076172 86.98046875 486.80078125 C78.58627296 489.97833282 70.09325042 492.4324577 61.375 494.5625 C60.4169043 494.80025146 59.45880859 495.03800293 58.47167969 495.28295898 C55.22080579 496.04902189 51.96452032 496.7292948 48.6875 497.375 C48.00519318 497.50950562 47.32288635 497.64401123 46.61990356 497.78259277 C32.69902165 500.43126718 18.97860846 500.84155258 4.83374023 500.76611328 C1.25791194 500.75003557 -2.31678389 500.76605138 -5.89257812 500.78515625 C-24.11440309 500.80275877 -41.70861878 499.26765725 -59.375 494.625 C-60.36902832 494.36895996 -61.36305664 494.11291992 -62.38720703 493.84912109 C-93.8017226 485.53837618 -123.03220795 471.35362754 -149.10546875 452.00390625 C-150.80766554 450.74759464 -152.55220861 449.54852759 -154.3125 448.375 C-154.3125 447.715 -154.3125 447.055 -154.3125 446.375 C-155.0859375 446.0346875 -155.0859375 446.0346875 -155.875 445.6875 C-159.20797005 443.89282382 -162.45953671 441.87534985 -165.3125 439.375 C-165.3125 438.715 -165.3125 438.055 -165.3125 437.375 C-165.89676758 437.11525391 -166.48103516 436.85550781 -167.08300781 436.58789062 C-169.46811164 435.290344 -171.06440637 433.88158878 -172.984375 431.96875 C-173.64824219 431.30746094 -174.31210938 430.64617187 -174.99609375 429.96484375 C-176.01896484 428.93037109 -176.01896484 428.93037109 -177.0625 427.875 C-177.75988281 427.18535156 -178.45726562 426.49570312 -179.17578125 425.78515625 C-179.83449219 425.12386719 -180.49320312 424.46257812 -181.171875 423.78125 C-182.07631348 422.87342773 -182.07631348 422.87342773 -182.99902344 421.94726562 C-184.3125 420.375 -184.3125 420.375 -184.3125 418.375 C-184.9725 418.375 -185.6325 418.375 -186.3125 418.375 C-186.3125 417.715 -186.3125 417.055 -186.3125 416.375 C-186.9725 416.375 -187.6325 416.375 -188.3125 416.375 C-190.0390625 414.4765625 -190.0390625 414.4765625 -191.9375 412 C-192.56914062 411.18789063 -193.20078125 410.37578125 -193.8515625 409.5390625 C-195.3125 407.375 -195.3125 407.375 -195.3125 405.375 C-195.9725 405.375 -196.6325 405.375 -197.3125 405.375 C-199.07293933 403.07664866 -200.70531648 400.77804579 -202.3125 398.375 C-202.80089355 397.6523999 -203.28928711 396.9297998 -203.79248047 396.18530273 C-225.91450361 363.24513169 -240.9759794 328.83467459 -247.3125 289.375 C-247.49723877 288.3137793 -247.68197754 287.25255859 -247.87231445 286.15917969 C-249.57848229 275.27184303 -249.65081711 264.46151723 -249.62817383 253.46191406 C-249.62502603 250.27634012 -249.64851159 247.09170913 -249.67382812 243.90625 C-249.72898594 226.31626812 -247.91661863 209.28614732 -243.6875 192.1875 C-243.43734131 191.16487061 -243.18718262 190.14224121 -242.92944336 189.08862305 C-238.54460981 171.82342291 -232.79280464 155.05592367 -224.3125 139.375 C-223.68582174 138.0905768 -223.0663567 136.80261591 -222.453125 135.51171875 C-218.17710634 126.54806872 -213.26886672 118.34285326 -207.58251953 110.20507812 C-206.28289217 108.33233559 -205.01198062 106.44255874 -203.74609375 104.546875 C-202.93527569 103.34349397 -202.12409314 102.14035843 -201.3125 100.9375 C-200.590625 99.86628906 -199.86875 98.79507813 -199.125 97.69140625 C-198.526875 96.92699219 -197.92875 96.16257812 -197.3125 95.375 C-196.6525 95.375 -195.9925 95.375 -195.3125 95.375 C-195.003125 94.75625 -194.69375 94.1375 -194.375 93.5 C-193.6875 92.125 -193 90.75 -192.3125 89.375 C-191.6525 89.375 -190.9925 89.375 -190.3125 89.375 C-190.02375 88.776875 -189.735 88.17875 -189.4375 87.5625 C-188.3125 85.375 -188.3125 85.375 -186.3125 82.375 C-185.6525 82.375 -184.9925 82.375 -184.3125 82.375 C-184.3125 81.715 -184.3125 81.055 -184.3125 80.375 C-183.6525 80.375 -182.9925 80.375 -182.3125 80.375 C-182.0753125 79.81296875 -181.838125 79.2509375 -181.59375 78.671875 C-180.02302303 75.85605958 -178.09778536 73.89544584 -175.8125 71.625 C-174.62140625 70.42617187 -174.62140625 70.42617187 -173.40625 69.203125 C-171.3125 67.375 -171.3125 67.375 -169.3125 67.375 C-169.3125 66.715 -169.3125 66.055 -169.3125 65.375 C-168.6525 65.375 -167.9925 65.375 -167.3125 65.375 C-167.3125 64.715 -167.3125 64.055 -167.3125 63.375 C-162.84191176 59.375 -162.84191176 59.375 -160.3125 59.375 C-160.3125 58.715 -160.3125 58.055 -160.3125 57.375 C-156.85096154 54.375 -156.85096154 54.375 -154.3125 54.375 C-154.3125 53.715 -154.3125 53.055 -154.3125 52.375 C-152.98999023 51.18920898 -152.98999023 51.18920898 -151.12109375 49.87109375 C-150.43144531 49.38229736 -149.74179688 48.89350098 -149.03125 48.38989258 C-148.2784375 47.86935303 -147.525625 47.34881348 -146.75 46.8125 C-145.97785156 46.27455811 -145.20570313 45.73661621 -144.41015625 45.18237305 C-113.00542885 23.52405131 -78.00813933 8.8339661 -40.3125 2.375 C-39.28568115 2.19098633 -38.2588623 2.00697266 -37.20092773 1.81738281 C-24.85427542 -0.12948584 -12.47060645 -0.02090528 0 0 Z M-105.3125 84.375 C-105.3125 85.035 -105.3125 85.695 -105.3125 86.375 C-105.869375 86.4575 -106.42625 86.54 -107 86.625 C-109.4770948 87.23642897 -109.4770948 87.23642897 -111.33862305 89.38378906 C-115.58286017 92.22559171 -119.20354401 91.97765473 -124.20703125 91.984375 C-125.15438644 92.00091125 -126.10174164 92.01744751 -127.07780457 92.03448486 C-130.0936025 92.08293891 -133.10889626 92.10433023 -136.125 92.125 C-138.17385345 92.15316182 -140.22268345 92.18308955 -142.27148438 92.21484375 C-147.28511474 92.28869737 -152.29846565 92.33828801 -157.3125 92.375 C-157.3218457 93.61588379 -157.33119141 94.85676758 -157.34082031 96.13525391 C-157.38079283 100.75377866 -157.44657207 105.37164238 -157.52001953 109.98974609 C-157.54818703 111.98575325 -157.56942252 113.98187106 -157.58349609 115.97802734 C-157.60498403 118.85311364 -157.65166426 121.72687529 -157.703125 124.6015625 C-157.70496796 125.93315903 -157.70496796 125.93315903 -157.70684814 127.29165649 C-157.83722732 132.84848615 -158.75792694 135.88469466 -162.3125 140.375 C-163.08189681 142.60102615 -163.08189681 142.60102615 -163.3125 144.375 C-163.9725 144.375 -164.6325 144.375 -165.3125 144.375 C-175.25219848 158.16942919 -181.79594949 175.40069423 -187.3125 191.375 C-187.69148438 192.4475 -188.07046875 193.52 -188.4609375 194.625 C-194.45592652 212.65504216 -195.5314719 231.57933816 -195.5 250.4375 C-195.49873108 251.21734253 -195.49746216 251.99718506 -195.49615479 252.80065918 C-195.43429799 272.71854799 -192.87187348 290.180931 -187.3125 309.375 C-186.97089844 310.56351562 -186.62929687 311.75203125 -186.27734375 312.9765625 C-182.5743781 324.87093702 -176.69879067 335.85651068 -170.75 346.75 C-170.30325928 347.56984375 -169.85651855 348.3896875 -169.39624023 349.234375 C-164.81096682 357.60374365 -164.81096682 357.60374365 -159.3125 365.375 C-158.6525 365.375 -157.9925 365.375 -157.3125 365.375 C-157.06886719 366.10074219 -156.82523438 366.82648438 -156.57421875 367.57421875 C-155.15735241 370.71939883 -153.48134189 372.67704281 -151.125 375.1875 C-149.91457031 376.49267578 -149.91457031 376.49267578 -148.6796875 377.82421875 C-147.89851563 378.66597656 -147.11734375 379.50773437 -146.3125 380.375 C-145.11948623 381.74521874 -143.93146418 383.11981028 -142.75 384.5 C-134.92898974 393.4563182 -126.25834828 401.81074014 -116.3125 408.375 C-115.6525 408.375 -114.9925 408.375 -114.3125 408.375 C-114.3125 409.035 -114.3125 409.695 -114.3125 410.375 C-111.57173944 412.65700477 -108.49408443 414.50548781 -105.5 416.4375 C-104.59797852 417.02023682 -103.69595703 417.60297363 -102.76660156 418.20336914 C-89.13538161 426.83037772 -74.53062248 433.12515034 -59.3125 438.375 C-58.22839844 438.75398438 -57.14429688 439.13296875 -56.02734375 439.5234375 C-21.3332039 450.95917628 20.94333171 451.02826414 55.6875 440.375 C57.27498047 439.89546875 57.27498047 439.89546875 58.89453125 439.40625 C75.42116632 434.14488222 90.87249774 426.44185964 105.6875 417.5 C106.48365723 417.02353027 107.27981445 416.54706055 108.10009766 416.05615234 C108.83019043 415.6070752 109.5602832 415.15799805 110.3125 414.6953125 C110.96476562 414.29586426 111.61703125 413.89641602 112.2890625 413.48486328 C112.75054687 413.1186084 113.21203125 412.75235352 113.6875 412.375 C113.6875 411.715 113.6875 411.055 113.6875 410.375 C114.8321875 409.941875 114.8321875 409.941875 116 409.5 C118.83779308 408.41230987 118.83779308 408.41230987 121.6875 406.375 C121.6875 405.715 121.6875 405.055 121.6875 404.375 C123.0075 404.045 124.3275 403.715 125.6875 403.375 C125.6875 402.715 125.6875 402.055 125.6875 401.375 C126.244375 401.1275 126.80125 400.88 127.375 400.625 C130.11160913 399.14575182 132.36400869 397.44032561 134.6875 395.375 C134.6875 394.715 134.6875 394.055 134.6875 393.375 C135.3475 393.375 136.0075 393.375 136.6875 393.375 C136.6875 392.715 136.6875 392.055 136.6875 391.375 C137.326875 391.106875 137.96625 390.83875 138.625 390.5625 C141.01881686 389.48832248 141.01881686 389.48832248 141.6875 386.375 C142.3475 386.375 143.0075 386.375 143.6875 386.375 C145.46421697 384.69540162 145.46421697 384.69540162 147.25 382.5625 C147.87003906 381.85480469 148.49007813 381.14710938 149.12890625 380.41796875 C150.87174754 378.36226532 150.87174754 378.36226532 151.6875 375.375 C152.3475 375.375 153.0075 375.375 153.6875 375.375 C154.0175 374.055 154.3475 372.735 154.6875 371.375 C155.3475 371.375 156.0075 371.375 156.6875 371.375 C159.64985695 367.74176311 159.64985695 367.74176311 160.6875 363.375 C161.3475 363.375 162.0075 363.375 162.6875 363.375 C163.88210514 361.92773643 163.88210514 361.92773643 165.0078125 360 C165.68118652 358.90558594 165.68118652 358.90558594 166.36816406 357.7890625 C167.08311035 356.59410156 167.08311035 356.59410156 167.8125 355.375 C168.30459961 354.55773437 168.79669922 353.74046875 169.30371094 352.8984375 C182.53767934 330.64952771 191.79895063 307.01603609 195.6875 281.375 C195.89503906 280.09496094 196.10257812 278.81492187 196.31640625 277.49609375 C202.79941373 231.84302706 192.88051199 186.38444241 168.6875 147.375 C167.33488737 145.05203484 166.01021222 142.71518316 164.6875 140.375 C164.0275 140.375 163.3675 140.375 162.6875 140.375 C162.44 139.67375 162.1925 138.9725 161.9375 138.25 C160.51569762 134.97985452 158.81503712 132.233878 156.6875 129.375 C156.0275 129.375 155.3675 129.375 154.6875 129.375 C154.625625 128.818125 154.56375 128.26125 154.5 127.6875 C153.5857182 125.08531335 152.26429209 123.85545884 150.31323242 121.96557617 C148.3824831 120.07657905 146.51419409 118.13322029 144.640625 116.1875 C134.62912406 105.89558285 124.47470535 96.58296024 112.6875 88.375 C111.99978516 87.89095703 111.31207031 87.40691406 110.60351562 86.90820312 C44.96183176 41.16166011 -38.03246153 45.55917277 -105.3125 84.375 Z " fill="#036768" transform="translate(249.3125,-0.375)"/>
<path d="M0 0 C5.26528574 -0.0497158 10.53043254 -0.08586827 15.79589844 -0.10986328 C17.58433413 -0.11987439 19.37275366 -0.13348733 21.16113281 -0.15087891 C23.74287934 -0.17534362 26.32440804 -0.18653221 28.90625 -0.1953125 C30.09112 -0.21079636 30.09112 -0.21079636 31.29992676 -0.22659302 C41.41423724 -0.22860291 51.43861175 2.65648057 58.89453125 9.8203125 C65.51975788 18.10603898 67.59960274 26.93884093 67.48242188 37.34619141 C67.48633438 38.43385803 67.49024689 39.52152466 67.49427795 40.64215088 C67.50022465 42.98829192 67.49713447 45.33447012 67.4858551 47.68059158 C67.46848801 51.40778832 67.47616041 55.13421646 67.4901123 58.86141968 C67.51752567 67.45207581 67.50847719 76.04260187 67.49741364 84.63327026 C67.48690559 93.12984697 67.49235363 101.6260717 67.52406311 110.12260056 C67.53109185 113.76950594 67.51455943 117.41579582 67.49694824 121.06265259 C67.49879605 142.55239619 70.35847317 160.69559884 85.80859375 176.8515625 C88.76077393 179.7458568 91.69766976 182.50824173 95 185 C95.5671875 185.42796875 96.134375 185.8559375 96.71875 186.296875 C107.27419632 193.54256273 119.51761407 195.82868367 132 197 C132.79206691 213.04567462 133.10877491 229.0619738 133.125 245.125 C133.12874634 246.44602219 133.12874634 246.44602219 133.13256836 247.79373169 C133.1384205 250.30263275 133.13699079 252.8114103 133.1328125 255.3203125 C133.13578842 256.46379906 133.13578842 256.46379906 133.13882446 257.63038635 C133.11528037 262.88471963 133.11528037 262.88471963 132 264 C102.54834633 266.59134685 72.90964463 253.42990531 50 236 C49.21109375 235.44957031 48.4221875 234.89914062 47.609375 234.33203125 C46.81273437 233.67267578 46.81273437 233.67267578 46 233 C46 232.34 46 231.68 46 231 C45.41734375 230.7421875 44.8346875 230.484375 44.234375 230.21875 C41.8197097 228.90165983 40.18259823 227.44911616 38.25 225.5 C37.63640625 224.8915625 37.0228125 224.283125 36.390625 223.65625 C35 222 35 222 35 220 C34.34 220 33.68 220 33 220 C33 219.34 33 218.68 33 218 C32.34 218 31.68 218 31 218 C16.5494603 200.82545052 7.28607905 180.84007093 2.75 159 C2.58677246 158.23042969 2.42354492 157.46085938 2.25537109 156.66796875 C-0.089309 144.6224557 -0.15019414 132.22582929 -0.11352539 119.99633789 C-0.11374443 118.03258461 -0.11374443 118.03258461 -0.1139679 116.02915955 C-0.11425085 112.4929562 -0.10843663 108.95678787 -0.10139394 105.42059255 C-0.09507553 101.70507444 -0.09454997 97.98955524 -0.09336853 94.27403259 C-0.09027994 87.262163 -0.08210043 80.2503093 -0.07201904 73.23844665 C-0.06078043 65.24550823 -0.05532807 57.25256898 -0.05032361 49.2596246 C-0.0399153 32.83974049 -0.02236454 16.41987228 0 0 Z " fill="#036768" transform="translate(118,118)"/>
<path d="M0 0 C1.17349503 -0.00095673 2.34699005 -0.00191345 3.55604553 -0.00289917 C6.03305108 -0.00357842 8.51005843 -0.0017419 10.98706055 0.00244141 C14.76810732 0.00778839 18.54903506 0.00249021 22.33007812 -0.00390625 C24.74088568 -0.00324533 27.15169316 -0.00196388 29.5625 0 C31.25184914 -0.00303635 31.25184914 -0.00303635 32.97532654 -0.00613403 C38.37350534 0.00990019 43.53085633 0.17596905 48.84765625 1.1328125 C50.10649661 30.55237799 39.75329245 57.48269464 22.84765625 81.1328125 C22.33807373 81.87192871 21.82849121 82.61104492 21.3034668 83.37255859 C20.82304932 83.95344238 20.34263184 84.53432617 19.84765625 85.1328125 C19.18765625 85.1328125 18.52765625 85.1328125 17.84765625 85.1328125 C17.57953125 85.7103125 17.31140625 86.2878125 17.03515625 86.8828125 C15.81836436 89.18831293 14.54431746 91.15337442 12.84765625 93.1328125 C12.18765625 93.1328125 11.52765625 93.1328125 10.84765625 93.1328125 C10.84765625 93.7928125 10.84765625 94.4528125 10.84765625 95.1328125 C10.18765625 95.1328125 9.52765625 95.1328125 8.84765625 95.1328125 C8.84765625 95.7928125 8.84765625 96.4528125 8.84765625 97.1328125 C3.37146577 102.1328125 3.37146577 102.1328125 0.84765625 102.1328125 C0.35265625 103.6178125 0.35265625 103.6178125 -0.15234375 105.1328125 C-2.32993909 106.81224562 -4.47554569 108.32965415 -6.77734375 109.8203125 C-7.45394043 110.26093018 -8.13053711 110.70154785 -8.82763672 111.15551758 C-28.359967 123.69778253 -50.59171089 133.1328125 -74.15234375 133.1328125 C-74.15234375 111.0228125 -74.15234375 88.9128125 -74.15234375 66.1328125 C-70.19234375 65.1428125 -66.23234375 64.1528125 -62.15234375 63.1328125 C-59.16456041 61.80631786 -56.37687824 60.49934857 -53.52734375 58.9453125 C-46.35637177 55.1328125 -46.35637177 55.1328125 -44.15234375 55.1328125 C-44.15234375 54.4728125 -44.15234375 53.8128125 -44.15234375 53.1328125 C-42.5078125 51.546875 -42.5078125 51.546875 -40.33984375 49.7578125 C-38.08983518 47.89714968 -36.2488409 46.26408547 -34.515625 43.90625 C-33.84080078 43.02839844 -33.84080078 43.02839844 -33.15234375 42.1328125 C-32.49234375 42.1328125 -31.83234375 42.1328125 -31.15234375 42.1328125 C-30.90484375 41.46765625 -30.65734375 40.8025 -30.40234375 40.1171875 C-29.15373527 37.13613476 -27.72799226 34.32337281 -26.23266602 31.46166992 C-22.95564337 25.15571561 -19.91178671 19.28959699 -19.15234375 12.1328125 C-19.04535156 11.14796875 -18.93835938 10.163125 -18.828125 9.1484375 C-18.56716057 6.47778848 -18.34244974 3.80930471 -18.15234375 1.1328125 C-12.13375519 -0.18803716 -6.12750702 -0.0109935 0 0 Z " fill="#03A19B" transform="translate(333.15234375,248.8671875)"/>
<path d="M0 0 C1.40137103 2.80274205 1.07618163 5.0597686 1.02172852 8.19384766 C1.00163223 9.49504547 0.98153595 10.79624329 0.96083069 12.13687134 C0.93363216 13.56260382 0.90632135 14.98833417 0.87890625 16.4140625 C0.85460795 17.86851267 0.83076424 19.3229705 0.80735779 20.7774353 C0.74448794 24.60799883 0.67542958 28.43842696 0.60510254 32.26885986 C0.53444524 36.17657295 0.46961271 40.08438213 0.40429688 43.9921875 C0.27524717 51.66156461 0.13966266 59.33080804 0 67 C-0.93884033 67.12407227 -1.87768066 67.24814453 -2.8449707 67.37597656 C-4.08851318 67.54581055 -5.33205566 67.71564453 -6.61328125 67.890625 C-7.84087158 68.05594727 -9.06846191 68.22126953 -10.33325195 68.39160156 C-25.16584934 70.85267305 -39.31794703 78.15398844 -48.6640625 90.1328125 C-49.78363731 91.74997611 -50.89305068 93.37416818 -52 95 C-52.66 95 -53.32 95 -54 95 C-54.33 96.32 -54.66 97.64 -55 99 C-55.66 99 -56.32 99 -57 99 C-57.06978675 90.04588011 -57.12295589 81.09185515 -57.15543652 72.13752174 C-57.17103265 67.97878984 -57.19215897 63.82024524 -57.22631836 59.66162109 C-57.2591295 55.64156654 -57.27689842 51.62169113 -57.28463173 47.60151291 C-57.29013648 46.07465168 -57.30088501 44.54779926 -57.31719017 43.02101517 C-57.42086733 32.9021907 -57.45261402 22.41645306 -51 14 C-50.34 14 -49.68 14 -49 14 C-49 13.34 -49 12.68 -49 12 C-48.34 12 -47.68 12 -47 12 C-47 11.34 -47 10.68 -47 10 C-32.91956783 1.55865983 -16.12583369 -0.30879256 0 0 Z " fill="#02A09A" transform="translate(250,118)"/>
<path d="M0 0 C6.71862969 8.5326597 9.91086599 17.16929317 9.125 28.109375 C7.40632908 37.95267207 2.66122933 44.94452611 -4.10546875 52.1640625 C-6.03624066 54.18922447 -6.03624066 54.18922447 -7.875 57.109375 C-12.08132374 58.18455939 -16.050611 58.17327739 -20.3671875 57.98828125 C-21.56601562 57.93994141 -22.76484375 57.89160156 -24 57.84179688 C-25.2375 57.78572266 -26.475 57.72964844 -27.75 57.671875 C-29.01070313 57.61966797 -30.27140625 57.56746094 -31.5703125 57.51367188 C-34.67215237 57.38442855 -37.77363488 57.24947969 -40.875 57.109375 C-40.875 56.449375 -40.875 55.789375 -40.875 55.109375 C-41.535 55.109375 -42.195 55.109375 -42.875 55.109375 C-43.308125 54.1503125 -43.308125 54.1503125 -43.75 53.171875 C-44.70323451 50.95731421 -44.70323451 50.95731421 -46.875 50.109375 C-46.875 49.449375 -46.875 48.789375 -46.875 48.109375 C-47.535 48.109375 -48.195 48.109375 -48.875 48.109375 C-48.875 47.449375 -48.875 46.789375 -48.875 46.109375 C-49.535 46.109375 -50.195 46.109375 -50.875 46.109375 C-56.36051654 36.87612006 -58.99780402 28.97216566 -57.875 18.109375 C-56.3781166 12.36517712 -54.22821698 7.02918678 -50.875 2.109375 C-50.215 2.109375 -49.555 2.109375 -48.875 2.109375 C-48.215 0.789375 -47.555 -0.530625 -46.875 -1.890625 C-46.215 -1.890625 -45.555 -1.890625 -44.875 -1.890625 C-44.875 -2.550625 -44.875 -3.210625 -44.875 -3.890625 C-30.0842773 -11.25879752 -12.74547794 -12.85169026 0 0 Z M-37.8125 26.546875 C-40.4498558 29.82358978 -40.39898568 31.89393657 -40.34375 35.98828125 C-39.77003512 38.5843411 -38.95955563 39.496326 -36.875 41.109375 C-33.42919545 42.04913988 -31.0350644 42.1360524 -27.5 41.546875 C-24.07284095 41.13325236 -22.92069899 41.27856981 -19.8125 42.296875 C-16.31224417 43.31636699 -16.05419887 43.19897444 -12.5 41.421875 C-9.78077213 39.02636473 -8.10425127 37.35388191 -7.4375 33.734375 C-8.06117695 29.99231329 -10.08817668 28.55634181 -12.875 26.109375 C-13.205 25.779375 -13.535 25.449375 -13.875 25.109375 C-16.70573436 24.60768085 -16.70573436 24.60768085 -19.875 25.109375 C-24.27911405 28.48927648 -25.99222236 32.05560345 -27.875 37.109375 C-30.20794775 37.15179223 -32.54202567 37.15030437 -34.875 37.109375 C-35.205 36.779375 -35.535 36.449375 -35.875 36.109375 C-35.58769945 33.76992764 -35.25563221 31.4354607 -34.875 29.109375 C-31.41 28.614375 -31.41 28.614375 -27.875 28.109375 C-27.875 27.119375 -27.875 26.129375 -27.875 25.109375 C-31.76317732 24.80441992 -34.2776107 24.81703555 -37.8125 26.546875 Z " fill="#0AA19B" transform="translate(372.875,170.890625)"/>
<path d="M0 0 C1.25159912 0.00523682 2.50319824 0.01047363 3.79272461 0.01586914 C4.78942421 0.01799156 4.78942421 0.01799156 5.80625916 0.02015686 C7.93590735 0.02577021 10.06545175 0.03832485 12.19506836 0.05102539 C13.63582205 0.05603868 15.07657739 0.06060188 16.51733398 0.06469727 C20.05577938 0.07574394 23.59416375 0.09301747 27.13256836 0.11352539 C27.29711914 6.81323242 27.29711914 6.81323242 25.81616211 9.51586914 C21.48148573 12.09648434 17.14195361 11.73059843 12.19506836 11.67602539 C11.20571289 11.69987305 10.21635742 11.7237207 9.19702148 11.74829102 C4.37157302 11.73855575 1.91910131 11.70027315 -2.03540039 8.75024414 C-4.0492673 5.85182161 -4.44206846 4.56134633 -3.86743164 1.11352539 C-2.86743164 0.11352539 -2.86743164 0.11352539 0 0 Z " fill="#28A8A3" transform="translate(336.867431640625,230.886474609375)"/>
<path d="M0 0 C1.485 0.99 1.485 0.99 3 2 C3.66 2.33 4.32 2.66 5 3 C-4.97548161 11.65849387 -4.97548161 11.65849387 -9 13 C-9.33 13.66 -9.66 14.32 -10 15 C-10.66 15 -11.32 15 -12 15 C-12.433125 15.9590625 -12.433125 15.9590625 -12.875 16.9375 C-14 19 -14 19 -16 20 C-16.66 19.67 -17.32 19.34 -18 19 C-18.185625 19.78375 -18.37125 20.5675 -18.5625 21.375 C-20 24 -20 24 -23.625 25.3125 C-24.73875 25.539375 -25.8525 25.76625 -27 26 C-26.67 26.99 -26.34 27.98 -26 29 C-27.65 29 -29.3 29 -31 29 C-31 28.34 -31 27.68 -31 27 C-25.58823529 23 -25.58823529 23 -23 23 C-23 22.34 -23 21.68 -23 21 C-21.68 20.67 -20.36 20.34 -19 20 C-19 19.34 -19 18.68 -19 18 C-17.5390625 16.4921875 -17.5390625 16.4921875 -15.625 14.875 C-14.68527344 14.06675781 -14.68527344 14.06675781 -13.7265625 13.2421875 C-12 12 -12 12 -10 12 C-10 11.34 -10 10.68 -10 10 C-9.34 10 -8.68 10 -8 10 C-8 9.34 -8 8.68 -8 8 C-5.625 5.375 -5.625 5.375 -3 3 C-2.34 3 -1.68 3 -1 3 C-0.67 2.01 -0.34 1.02 0 0 Z " fill="#418485" transform="translate(394,383)"/>
<path d="M0 0 C-0.33 0.33 -0.66 0.66 -1 1 C-3.31 1 -5.62 1 -8 1 C-7.67 22.12 -7.34 43.24 -7 65 C-3.04 65 0.92 65 5 65 C5 65.33 5 65.66 5 66 C0.38 66.33 -4.24 66.66 -9 67 C-9 44.89 -9 22.78 -9 0 C-3.375 -1.125 -3.375 -1.125 0 0 Z " fill="#389896" transform="translate(268,315)"/>
<path d="M0 0 C1.32 0.99 2.64 1.98 4 3 C3.52449439 4.48034764 3.04448784 5.95925021 2.5625 7.4375 C2.29566406 8.26121094 2.02882813 9.08492187 1.75390625 9.93359375 C1 12 1 12 0 13 C-3.4375 13.1875 -3.4375 13.1875 -7 13 C-7.66 12.34 -8.32 11.68 -9 11 C-8.42307692 4.42307692 -8.42307692 4.42307692 -7 3 C-4.66702567 2.95907063 -2.33294775 2.95758277 0 3 C0 2.01 0 1.02 0 0 Z " fill="#47A6A1" transform="translate(345,196)"/>
<path d="M0 0 C1 1 1 1 1.25 4.4375 C1.1675 5.613125 1.085 6.78875 1 8 C-3.1795645 10.78637633 -5.14668677 9.79562512 -10 9 C-9.40377804 2.68004723 -9.40377804 2.68004723 -7.8125 0 C-5.02633212 -1.53719607 -2.98413247 -0.77846934 0 0 Z " fill="#1CA09D" transform="translate(360,200)"/>
<path d="M0 0 C0 0.33 0 0.66 0 1 C-2.64 1.33 -5.28 1.66 -8 2 C-8 2.33 -8 2.66 -8 3 C-8.71430176 3.0501123 -9.42860352 3.10022461 -10.16455078 3.15185547 C-29.15077519 4.45503291 -29.15077519 4.45503291 -48 7 C-48 6.01 -48 5.02 -48 4 C-43.98679758 2.60410351 -40.69280543 1.887463 -36.4375 2 C-32.30861082 2.09949131 -28.51201063 1.67285497 -24.4375 1 C-16.27004878 -0.27869688 -8.2387988 -0.17953799 0 0 Z " fill="#3D7D83" transform="translate(256,51)"/>
<path d="M0 0 C0.33 0 0.66 0 1 0 C1 16.5 1 33 1 50 C0.67 50 0.34 50 0 50 C-1.04193777 43.29984296 -1.37819098 36.65085797 -1.61254883 29.88647461 C-1.68670517 27.83449374 -1.77774839 25.78369718 -1.86914062 23.73242188 C-2.18302273 15.58439648 -1.73028476 7.98266922 0 0 Z " fill="#317A7B" transform="translate(53,225)"/>
<path d="M0 0 C0.33 0 0.66 0 1 0 C1 21.12 1 42.24 1 64 C2.32 63.34 3.64 62.68 5 62 C5.33 62.66 5.66 63.32 6 64 C5.505 64.99 5.505 64.99 5 66 C4.34 66 3.68 66 3 66 C2.67 67.32 2.34 68.64 2 70 C1.34 70 0.68 70 0 70 C0 46.9 0 23.8 0 0 Z " fill="#5DAAA5" transform="translate(193,147)"/>
<path d="M0 0 C0.66 0 1.32 0 2 0 C1.375 1.875 1.375 1.875 0 4 C-1.98 4.66 -3.96 5.32 -6 6 C-6.33 21.84 -6.66 37.68 -7 54 C-7.33 54 -7.66 54 -8 54 C-8 36.84 -8 19.68 -8 2 C-4.535 1.505 -4.535 1.505 -1 1 C-0.67 0.67 -0.34 0.34 0 0 Z " fill="#0D9B95" transform="translate(268,314)"/>
<path d="M0 0 C0.85916865 2.97808159 1.1285051 5.63498917 1.1328125 8.73046875 C1.13474609 10.05788086 1.13474609 10.05788086 1.13671875 11.41210938 C1.13285156 12.32798828 1.12898437 13.24386719 1.125 14.1875 C1.12886719 15.11498047 1.13273438 16.04246094 1.13671875 16.99804688 C1.13542969 17.87912109 1.13414062 18.76019531 1.1328125 19.66796875 C1.13168457 20.47516357 1.13055664 21.2823584 1.12939453 22.11401367 C1 24 1 24 0 25 C-2.18639453 25.07258946 -4.37500389 25.08373783 -6.5625 25.0625 C-8.35880859 25.04896484 -8.35880859 25.04896484 -10.19140625 25.03515625 C-11.11824219 25.02355469 -12.04507813 25.01195312 -13 25 C-13 24.34 -13 23.68 -13 23 C-9.04 22.67 -5.08 22.34 -1 22 C-1.01160156 20.66324219 -1.02320313 19.32648438 -1.03515625 17.94921875 C-1.04453542 16.19531389 -1.05363549 14.44140753 -1.0625 12.6875 C-1.07087891 11.80642578 -1.07925781 10.92535156 -1.08789062 10.01757812 C-1.09111328 9.17001953 -1.09433594 8.32246094 -1.09765625 7.44921875 C-1.10289307 6.66893311 -1.10812988 5.88864746 -1.11352539 5.0847168 C-1 3 -1 3 0 0 Z " fill="#308381" transform="translate(250,357)"/>
<path d="M0 0 C0.33 0.99 0.66 1.98 1 3 C1.66 3.33 2.32 3.66 3 4 C2.01 4.33 1.02 4.66 0 5 C0.02320313 5.62261719 0.04640625 6.24523437 0.0703125 6.88671875 C0.27417547 17.32741494 -0.90408982 27.62965841 -2 38 C-2.66 38 -3.32 38 -4 38 C-4.63173123 25.38877288 -3.22408307 12.22370685 0 0 Z " fill="#519193" transform="translate(4,200)"/>
<path d="M0 0 C1.35439668 2.70879335 1.06501451 5.00933268 1 8 C0.01 8.495 0.01 8.495 -1 9 C-1 6.69 -1 4.38 -1 2 C-3.47960136 2.14024219 -5.95852402 2.2869185 -8.4375 2.4375 C-9.49807617 2.49647461 -9.49807617 2.49647461 -10.58007812 2.55664062 C-14.08690419 2.47624438 -14.08690419 2.47624438 -17 4 C-19.18639453 4.07258946 -21.37500389 4.08373783 -23.5625 4.0625 C-25.35880859 4.04896484 -25.35880859 4.04896484 -27.19140625 4.03515625 C-28.11824219 4.02355469 -29.04507813 4.01195313 -30 4 C-30 3.67 -30 3.34 -30 3 C-19.95334846 0.798287 -10.28449241 -0.19693709 0 0 Z " fill="#41A69E" transform="translate(250,118)"/>
<path d="M0 0 C0.66 0.33 1.32 0.66 2 1 C-0.625 5.875 -0.625 5.875 -4 7 C-4 7.66 -4 8.32 -4 9 C-4.86625 9.12375 -4.86625 9.12375 -5.75 9.25 C-8.17907925 9.86764331 -8.17907925 9.86764331 -10 12.0625 C-12 14 -12 14 -16 14 C-16 14.66 -16 15.32 -16 16 C-16.99 15.67 -17.98 15.34 -19 15 C-18.34 15 -17.68 15 -17 15 C-17 14.34 -17 13.68 -17 13 C-13.53846154 10 -13.53846154 10 -11 10 C-11 9.34 -11 8.68 -11 8 C-9.217871 6.55925285 -7.37339724 5.19489351 -5.5 3.875 C-4.4790625 3.15054688 -3.458125 2.42609375 -2.40625 1.6796875 C-1.6121875 1.12539063 -0.818125 0.57109375 0 0 Z " fill="#397C7E" transform="translate(106,44)"/>
<path d="M0 0 C0.66 0.33 1.32 0.66 2 1 C2 1.66 2 2.32 2 3 C2.59538574 3.17128418 3.19077148 3.34256836 3.80419922 3.51904297 C6.49646085 4.29764861 9.18571111 5.08619084 11.875 5.875 C13.28072266 6.27912109 13.28072266 6.27912109 14.71484375 6.69140625 C16.05869141 7.08779297 16.05869141 7.08779297 17.4296875 7.4921875 C18.25710449 7.73308105 19.08452148 7.97397461 19.93701172 8.22216797 C22 9 22 9 24 11 C17.53283348 10.82899319 11.59533037 9.49257255 5.4375 7.625 C4.72271484 7.41593018 4.00792969 7.20686035 3.27148438 6.99145508 C1.24609375 6.3515625 1.24609375 6.3515625 -2 5 C-2.33 4.01 -2.66 3.02 -3 2 C-2.01 1.34 -1.02 0.68 0 0 Z " fill="#2E7574" transform="translate(205,369)"/>
<path d="M0 0 C2.66572015 0.49313497 5.29815717 0.72523632 8 1 C8 1.66 8 2.32 8 3 C-3.22 2.34 -14.44 1.68 -26 1 C-26 0.67 -26 0.34 -26 0 C-22.60621642 -0.39536615 -19.20995602 -0.76266433 -15.8125 -1.125 C-14.85279297 -1.23714844 -13.89308594 -1.34929688 -12.90429688 -1.46484375 C-11.97294922 -1.56152344 -11.04160156 -1.65820312 -10.08203125 -1.7578125 C-9.22843018 -1.8520752 -8.3748291 -1.94633789 -7.49536133 -2.04345703 C-4.58897135 -1.99284188 -2.63512903 -1.18126474 0 0 Z " fill="#4E898C" transform="translate(276,53)"/>
<path d="M0 0 C3.95119482 0.07761276 7.84505135 0.26778656 11.7734375 0.70703125 C17.44620282 1.29272585 23.11581408 1.56099422 28.8125 1.79296875 C29.81667969 1.83615234 30.82085937 1.87933594 31.85546875 1.92382812 C34.29938383 2.02856734 36.74337617 2.13074131 39.1875 2.23046875 C39.1875 2.56046875 39.1875 2.89046875 39.1875 3.23046875 C34.67090204 3.25543719 30.15434209 3.27345412 25.63769531 3.28540039 C24.10546162 3.29038771 22.57323258 3.29717997 21.04101562 3.3059082 C12.69570407 3.35221052 4.48376585 3.27781046 -3.8125 2.23046875 C-1.8125 0.23046875 -1.8125 0.23046875 0 0 Z " fill="#448183" transform="translate(221.8125,444.76953125)"/>
<path d="M0 0 C0.33 0 0.66 0 1 0 C1.71565886 12.2722241 -0.94931675 24.18191836 -4 36 C-4.33 36 -4.66 36 -5 36 C-4.88562349 33.27001324 -4.75888594 30.5415418 -4.625 27.8125 C-4.5940625 27.04357422 -4.563125 26.27464844 -4.53125 25.48242188 C-4.30987862 21.18412766 -3.70793969 17.98519262 -2 14 C-1.56730111 11.57207848 -1.19495037 9.13283495 -0.875 6.6875 C-0.62363281 4.80611328 -0.62363281 4.80611328 -0.3671875 2.88671875 C-0.24601562 1.93410156 -0.12484375 0.98148438 0 0 Z " fill="#49B0AB" transform="translate(381,253)"/>
<path d="M0 0 C-1.76695859 1.96195402 -3.53831789 3.91959627 -5.3125 5.875 C-5.81201172 6.43058594 -6.31152344 6.98617188 -6.82617188 7.55859375 C-9.1087156 10.06788023 -11.16360168 12.10906778 -14 14 C-14.33 12.68 -14.66 11.36 -15 10 C-14.01 10 -13.02 10 -12 10 C-12 9.01 -12 8.02 -12 7 C-11.34 7 -10.68 7 -10 7 C-9.814375 6.0409375 -9.814375 6.0409375 -9.625 5.0625 C-9.41875 4.381875 -9.2125 3.70125 -9 3 C-8.34 2.67 -7.68 2.34 -7 2 C-6.67 1.34 -6.34 0.68 -6 0 C-3 -1 -3 -1 0 0 Z " fill="#3B7F7E" transform="translate(438,417)"/>
<path d="M0 0 C0.33 0 0.66 0 1 0 C1.47545004 9.45617311 0.10435896 17.83100739 -2 27 C-2.66 27 -3.32 27 -4 27 C-5.25 19.375 -5.25 19.375 -3 16 C-2.38605779 13.26542253 -1.84714777 10.57071017 -1.375 7.8125 C-1.2409375 7.06291016 -1.106875 6.31332031 -0.96875 5.54101562 C-0.63954581 3.69512072 -0.31893502 1.84769691 0 0 Z " fill="#387A79" transform="translate(497,281)"/>
<path d="M0 0 C0.99 0.86625 1.98 1.7325 3 2.625 C6.86190708 5.94197541 10.89447006 8.99283262 15 12 C13.1875 12.625 13.1875 12.625 11 13 C10.01 12.34 9.02 11.68 8 11 C6.989375 10.690625 5.97875 10.38125 4.9375 10.0625 C2 9 2 9 0 6 C-0.125 2.8125 -0.125 2.8125 0 0 Z " fill="#357E7D" transform="translate(200,292)"/>
<path d="M0 0 C5.39882424 4.59474404 10.71333087 9.27676273 16 14 C15.34 14.66 14.68 15.32 14 16 C12.49460339 15.05016642 10.99579653 14.08988109 9.5 13.125 C8.6646875 12.59132813 7.829375 12.05765625 6.96875 11.5078125 C5.99421875 10.76144531 5.99421875 10.76144531 5 10 C5 9.34 5 8.68 5 8 C4.34 7.67 3.68 7.34 3 7 C3 6.01 3 5.02 3 4 C2.01 4 1.02 4 0 4 C0 2.68 0 1.36 0 0 Z " fill="#3C7F7D" transform="translate(110,388)"/>
<path d="M0 0 C0.99 0.66 1.98 1.32 3 2 C3.66 2.33 4.32 2.66 5 3 C-5.36893204 12 -5.36893204 12 -8 12 C-8 8 -8 8 -5.625 5.25 C-3 3 -3 3 -1 3 C-0.67 2.01 -0.34 1.02 0 0 Z " fill="#2E7B7A" transform="translate(394,383)"/>
<path d="M0 0 C-2.05233685 2.2477975 -3.00667261 3.0022242 -6 4 C-6.99 5.485 -6.99 5.485 -8 7 C-9.9453125 7.29296875 -9.9453125 7.29296875 -12.125 7.1875 C-13.40375 7.125625 -14.6825 7.06375 -16 7 C-16 7.66 -16 8.32 -16 9 C-17.98 9 -19.96 9 -22 9 C-18.45918679 6.63945786 -14.78696788 4.74304502 -11 2.8125 C-10.27554687 2.43158203 -9.55109375 2.05066406 -8.8046875 1.65820312 C-7.75667969 1.12549805 -7.75667969 1.12549805 -6.6875 0.58203125 C-6.05199219 0.25436768 -5.41648437 -0.0732959 -4.76171875 -0.41088867 C-3 -1 -3 -1 0 0 Z " fill="#4AB1AD" transform="translate(290,305)"/>
<path d="M0 0 C7.26 0 14.52 0 22 0 C21.67 0.99 21.34 1.98 21 3 C13.74 3 6.48 3 -1 3 C-0.67 2.01 -0.34 1.02 0 0 Z " fill="#3FA9A5" transform="translate(339,239)"/>
<path d="M0 0 C0 0.66 0 1.32 0 2 C-0.99 2 -1.98 2 -3 2 C-3.33 3.65 -3.66 5.3 -4 7 C-5.32 6.67 -6.64 6.34 -8 6 C-8 6.66 -8 7.32 -8 8 C-9.62626404 9.38232443 -11.2925002 10.71937515 -13 12 C-13 11.34 -13 10.68 -13 10 C-14.65 10.33 -16.3 10.66 -18 11 C-14.95124073 7.67140292 -11.78089042 5.49564707 -7.875 3.25 C-6.82054688 2.63640625 -5.76609375 2.0228125 -4.6796875 1.390625 C-2 0 -2 0 0 0 Z " fill="#367E7C" transform="translate(129,31)"/>
<path d="M0 0 C1.32 0 2.64 0 4 0 C4 0.66 4 1.32 4 2 C4.6290625 1.97679687 5.258125 1.95359375 5.90625 1.9296875 C13.49145391 1.7697585 19.87688237 2.07722921 26 7 C17.03547936 6.56901343 8.62647053 4.30110566 0 2 C0 1.34 0 0.68 0 0 Z " fill="#4F8989" transform="translate(182,490)"/>
<path d="M0 0 C1.02158203 0.09345703 2.04316406 0.18691406 3.09570312 0.28320312 C4.15080078 0.38697266 5.20589844 0.49074219 6.29296875 0.59765625 C7.90461914 0.74750977 7.90461914 0.74750977 9.54882812 0.90039062 C12.19338419 1.14721586 14.83712887 1.40068146 17.48046875 1.66015625 C9.29988445 6.23112575 -1.63722218 2.97085271 -10.51953125 1.66015625 C-10.51953125 1.33015625 -10.51953125 1.00015625 -10.51953125 0.66015625 C-6.83938542 -0.22996625 -3.76276667 -0.35735773 0 0 Z " fill="#44878A" transform="translate(218.51953125,496.33984375)"/>
<path d="M0 0 C5.71428571 0.71428571 5.71428571 0.71428571 7 2 C7.25 5.4375 7.25 5.4375 7 9 C4 11 4 11 1.8125 10.625 C1.214375 10.41875 0.61625 10.2125 0 10 C1.32 9.67 2.64 9.34 4 9 C4 7.68 4 6.36 4 5 C3.34 4.67 2.68 4.34 2 4 C2.33 3.01 2.66 2.02 3 1 C2.071875 1.99 2.071875 1.99 1.125 3 C-1 5 -1 5 -3 5 C-1.125 1.125 -1.125 1.125 0 0 Z " fill="#4EB1AA" transform="translate(354,199)"/>
<path d="M0 0 C-3.08636293 2.05757528 -6.23566036 3.80166814 -9.5 5.5625 C-11.21703125 6.49255859 -11.21703125 6.49255859 -12.96875 7.44140625 C-16 9 -16 9 -19 10 C-19 9.01 -19 8.02 -19 7 C-18.34 6.67 -17.68 6.34 -17 6 C-16.67 5.34 -16.34 4.68 -16 4 C-15.01 4 -14.02 4 -13 4 C-12.34 3.01 -11.68 2.02 -11 1 C-7.30600548 0.09702356 -3.79181894 -0.11152409 0 0 Z " fill="#3CABA5" transform="translate(229,188)"/>
<path d="M0 0 C0 2.83967231 -0.40267181 5.23735711 -1 8 C-1.66 8 -2.32 8 -3 8 C-3 8.66 -3 9.32 -3 10 C-4.98 10.66 -6.96 11.32 -9 12 C-9 12.66 -9 13.32 -9 14 C-10.32 14.33 -11.64 14.66 -13 15 C-13 14.34 -13 13.68 -13 13 C-12.34 13 -11.68 13 -11 13 C-11 12.34 -11 11.68 -11 11 C-10.34 11 -9.68 11 -9 11 C-8.74476562 10.41734375 -8.48953125 9.8346875 -8.2265625 9.234375 C-6.88258913 6.78611777 -5.38189704 5.18256752 -3.375 3.25 C-2.74335937 2.63640625 -2.11171875 2.0228125 -1.4609375 1.390625 C-0.73777344 0.70226562 -0.73777344 0.70226562 0 0 Z " fill="#347C7C" transform="translate(76,69)"/>
<path d="M0 0 C0 0.33 0 0.66 0 1 C-7.92 1.495 -7.92 1.495 -16 2 C-16 1.67 -16 1.34 -16 1 C-19.63 0.67 -23.26 0.34 -27 0 C-27 -0.33 -27 -0.66 -27 -1 C-17.70208059 -2.90726552 -9.24384948 -1.7517955 0 0 Z " fill="#438282" transform="translate(297,3)"/>
<path d="M0 0 C3.04386724 -0.08226668 5.07175348 0.02391783 8 1 C8 1.66 8 2.32 8 3 C7.34 3 6.68 3 6 3 C6 3.99 6 4.98 6 6 C4.02 6.33 2.04 6.66 0 7 C-1.125 2.25 -1.125 2.25 0 0 Z " fill="#099B99" transform="translate(339,200)"/>
<path d="M0 0 C1.32 0.66 2.64 1.32 4 2 C1.39898714 2.86500888 -1.20506411 3.71726928 -3.8125 4.5625 C-4.55048828 4.80935547 -5.28847656 5.05621094 -6.04882812 5.31054688 C-11.66015625 7.11328125 -11.66015625 7.11328125 -15 6 C-15 4 -15 4 -13.8515625 2.3828125 C-11.28380998 0.46512391 -9.53776935 0.73313436 -6.375 0.875 C-4.58423621 0.94550251 -2.79214159 0.99416241 -1 1 C-0.67 0.67 -0.34 0.34 0 0 Z " fill="#2D7175" transform="translate(201,57)"/>
<path d="M0 0 C6.10737442 1.76463072 12.07433507 3.69557475 18 6 C17.01 6.66 16.02 7.32 15 8 C15 7.34 15 6.68 15 6 C9.06 6.495 9.06 6.495 3 7 C3 6.01 3 5.02 3 4 C2.01 3.34 1.02 2.68 0 2 C0 1.34 0 0.68 0 0 Z " fill="#3D8587" transform="translate(172,431)"/>
<path d="M0 0 C0 0.66 0 1.32 0 2 C-0.99 2 -1.98 2 -3 2 C-2.34 2.66 -1.68 3.32 -1 4 C-0.01 4 0.98 4 2 4 C1.67 4.99 1.34 5.98 1 7 C-0.65 7.33 -2.3 7.66 -4 8 C-4 7.34 -4 6.68 -4 6 C-5.65 7.32 -7.3 8.64 -9 10 C-9.66 9.67 -10.32 9.34 -11 9 C-10.67 8.34 -10.34 7.68 -10 7 C-9.34 7 -8.68 7 -8 7 C-7.34 5.68 -6.68 4.36 -6 3 C-5.34 3 -4.68 3 -4 3 C-4 2.34 -4 1.68 -4 1 C-2 0 -2 0 0 0 Z " fill="#34ABA8" transform="translate(332,166)"/>
<path d="M0 0 C0.66 0 1.32 0 2 0 C2 0.66 2 1.32 2 2 C3.32 2.33 4.64 2.66 6 3 C6 4.65 6 6.3 6 8 C7.32 8 8.64 8 10 8 C10.99 10.97 11.98 13.94 13 17 C12.34 17 11.68 17 11 17 C9.76318359 15.54711914 9.76318359 15.54711914 8.3984375 13.53515625 C7.90859375 12.81779297 7.41875 12.10042969 6.9140625 11.36132812 C6.40617187 10.60271484 5.89828125 9.84410156 5.375 9.0625 C4.6015625 7.93038086 4.6015625 7.93038086 3.8125 6.77539062 C0 1.15245742 0 1.15245742 0 0 Z " fill="#528E8E" transform="translate(41,388)"/>
<path d="M0 0 C0.556875 0.19335938 1.11375 0.38671875 1.6875 0.5859375 C10.5335956 3.60436877 18.64840832 5.34676382 28 6 C28 6.33 28 6.66 28 7 C25.4580411 7.05434116 22.91726318 7.0938339 20.375 7.125 C19.66214844 7.14175781 18.94929688 7.15851563 18.21484375 7.17578125 C13.7387836 7.21684602 10.22050722 6.69086567 6 5 C6 4.34 6 3.68 6 3 C5.01 3.33 4.02 3.66 3 4 C1.97895449 3.02149805 0.9793879 2.02019573 0 1 C0 0.67 0 0.34 0 0 Z " fill="#5D9294" transform="translate(222,309)"/>
<path d="M0 0 C2.6815279 3.07692746 3.42087807 5.19734663 3.6875 9.25 C3.75324219 10.14203125 3.81898437 11.0340625 3.88671875 11.953125 C3.92410156 12.62859375 3.96148437 13.3040625 4 14 C4.99 14.33 5.98 14.66 7 15 C6.34 16.98 5.68 18.96 5 21 C2.27960591 18.27960591 2.15198872 15.93509713 1.375 12.1875 C1.11460938 10.96417969 0.85421875 9.74085938 0.5859375 8.48046875 C0.09297596 5.5522772 -0.12382257 2.95485688 0 0 Z " fill="#3B8381" transform="translate(120,268)"/>
<path d="M0 0 C0.33 0 0.66 0 1 0 C2.98718981 8.7649265 4.50803456 16.94945834 4 26 C-0.337108 18.30983372 -0.34321453 8.61849822 0 0 Z " fill="#538E8E" transform="translate(1,274)"/>
<path d="M0 0 C0.66 0.33 1.32 0.66 2 1 C-0.89066059 11.55808656 -0.89066059 11.55808656 -4 16 C-4.99 14.68 -5.98 13.36 -7 12 C-6.34 11.67 -5.68 11.34 -5 11 C-4.09656316 9.11736119 -4.09656316 9.11736119 -3.375 6.9375 C-3.11460937 6.20402344 -2.85421875 5.47054688 -2.5859375 4.71484375 C-2.39257812 4.14894531 -2.19921875 3.58304687 -2 3 C-1.34 3 -0.68 3 0 3 C0 2.01 0 1.02 0 0 Z " fill="#3BACA4" transform="translate(371,297)"/>
<path d="M0 0 C0.33 0 0.66 0 1 0 C1.50734284 2.3736397 2.00602386 4.74857425 2.5 7.125 C2.64308594 7.79015625 2.78617187 8.4553125 2.93359375 9.140625 C3.7612283 13.16056422 4.15330658 16.89904899 4 21 C3.34 21.33 2.68 21.66 2 22 C1.86722656 21.03578125 1.73445313 20.0715625 1.59765625 19.078125 C1.42105469 17.81484375 1.24445313 16.5515625 1.0625 15.25 C0.88847656 13.99703125 0.71445312 12.7440625 0.53515625 11.453125 C0.08389423 8.17087048 0.08389423 8.17087048 -0.59375 5.6875 C-1.11218928 3.53398299 -0.66907891 2.08157884 0 0 Z " fill="#478787" transform="translate(494,192)"/>
<path d="M0 0 C0.99 0.66 1.98 1.32 3 2 C2.34 2 1.68 2 1 2 C0.34 8.27 -0.32 14.54 -1 21 C-1.66 21 -2.32 21 -3 21 C-3.34855655 13.37048445 -3.0017506 7.07555499 0 0 Z " fill="#44AAA3" transform="translate(318,180)"/>
<path d="M0 0 C1.65 0 3.3 0 5 0 C5.66 1.32 6.32 2.64 7 4 C7.99 4 8.98 4 10 4 C12.125 8.625 12.125 8.625 11 12 C9.16364422 10.19047409 7.33083792 8.37759362 5.5 6.5625 C4.97535156 6.04623047 4.45070313 5.52996094 3.91015625 4.99804688 C2.58775448 3.68423213 1.29164432 2.34406495 0 1 C0 0.67 0 0.34 0 0 Z " fill="#317A7A" transform="translate(387,109)"/>
<path d="M0 0 C3.58824599 1.79412299 5.50109008 4.31037558 7 8 C7 8.99 7 9.98 7 11 C7.66 11 8.32 11 9 11 C9.33 12.98 9.66 14.96 10 17 C7.23308263 14.4799768 5.32744559 11.64280821 3.3125 8.5 C2.68988281 7.5409375 2.06726563 6.581875 1.42578125 5.59375 C0 3 0 3 0 0 Z " fill="#3A7C7D" transform="translate(134,311)"/>
<path d="M0 0 C2.1875 -0.3125 2.1875 -0.3125 5 0 C6.70884005 1.62339805 8.37446717 3.29319053 10 5 C12.66533035 6.319018 12.66533035 6.319018 15 7 C14.01 7.495 14.01 7.495 13 8 C13 8.66 13 9.32 13 10 C9.03935893 8.25731793 5.25563451 5.85325271 2 3 C2 2.34 2 1.68 2 1 C1.34 0.67 0.68 0.34 0 0 Z " fill="#36807D" transform="translate(162,348)"/>
<path d="M0 0 C0.33 0 0.66 0 1 0 C2.04819354 7.45067301 1.91318843 13.7109102 0 21 C-0.99 21 -1.98 21 -3 21 C-2.01 14.07 -1.02 7.14 0 0 Z " fill="#508F8D" transform="translate(445,273)"/>
<path d="M0 0 C3.24064079 2.16042719 3.45606081 2.39678731 4.25 5.9375 C5.33204061 11.38317977 4.75497746 16.541717 4 22 C3.67 22 3.34 22 3 22 C2.86722656 20.91460937 2.73445313 19.82921875 2.59765625 18.7109375 C2.41933746 17.26561678 2.24094831 15.82030474 2.0625 14.375 C1.97548828 13.66214844 1.88847656 12.94929687 1.79882812 12.21484375 C1.29217395 8.12408039 0.7110957 4.06157365 0 0 Z " fill="#528D8F" transform="translate(442,205)"/>
<path d="M0 0 C1.1171875 1.734375 1.1171875 1.734375 2 4 C1.3203125 6.140625 1.3203125 6.140625 0.125 8.25 C-0.26429688 8.95640625 -0.65359375 9.6628125 -1.0546875 10.390625 C-1.36664063 10.92171875 -1.67859375 11.4528125 -2 12 C-3.74565111 8.78360346 -4.204437 6.67986596 -4 3 C-3.01 2.67 -2.02 2.34 -1 2 C-0.67 1.34 -0.34 0.68 0 0 Z " fill="#2A787A" transform="translate(479,346)"/>
<path d="M0 0 C5.58777294 5.58777294 6.48396092 16.38842363 7 24 C4.8694828 19.94545492 3.64743332 15.82073687 2.375 11.4375 C2.14554687 10.66986328 1.91609375 9.90222656 1.6796875 9.11132812 C1.35484375 8.00241211 1.35484375 8.00241211 1.0234375 6.87109375 C0.82669434 6.20005615 0.62995117 5.52901855 0.42724609 4.83764648 C0 3 0 3 0 0 Z " fill="#639899" transform="translate(5,303)"/>
<path d="M0 0 C3.21880117 3.7935871 5.6163187 7.65829477 8 12 C7.01 12 6.02 12 5 12 C5 12.99 5 13.98 5 15 C4.34 15 3.68 15 3 15 C3.33 12.69 3.66 10.38 4 8 C3.01 8 2.02 8 1 8 C0.67 5.36 0.34 2.72 0 0 Z " fill="#277372" transform="translate(192,280)"/>
<path d="M0 0 C2.78750144 1.39375072 2.89266287 3.16244861 4 6 C4.66 6.66 5.32 7.32 6 8 C6.99 9.485 6.99 9.485 8 11 C7.67 11.66 7.34 12.32 7 13 C6.34 13 5.68 13 5 13 C4.67 13.66 4.34 14.32 4 15 C3.3299166 12.87607494 2.66403203 10.75082476 2 8.625 C1.62875 7.44164062 1.2575 6.25828125 0.875 5.0390625 C0 2 0 2 0 0 Z " fill="#226F70" transform="translate(439,193)"/>
<path d="M0 0 C1.65 0 3.3 0 5 0 C0.50587538 3.93235904 -4.84759838 8 -11 8 C-11 7.01 -11 6.02 -11 5 C-9.35 5 -7.7 5 -6 5 C-5.67 4.01 -5.34 3.02 -5 2 C-3.68 2.33 -2.36 2.66 -1 3 C-0.67 2.01 -0.34 1.02 0 0 Z " fill="#40807E" transform="translate(369,468)"/>
<path d="M0 0 C0 0.33 0 0.66 0 1 C-2.1818892 1.70510428 -4.37085693 2.38832408 -6.5625 3.0625 C-8.38974609 3.63677734 -8.38974609 3.63677734 -10.25390625 4.22265625 C-14.21846987 5.04533421 -17.05971961 4.8063122 -21 4 C-21 3.67 -21 3.34 -21 3 C-18.6263603 2.49265716 -16.25142575 1.99397614 -13.875 1.5 C-13.20984375 1.35691406 -12.5446875 1.21382813 -11.859375 1.06640625 C-7.83943578 0.2387717 -4.10095101 -0.15330658 0 0 Z " fill="#609897" transform="translate(215,2)"/>
<path d="M0 0 C0 0.33 0 0.66 0 1 C-6.7831364 2.42002108 -13.06697907 3.22731216 -20 3 C-20 2.34 -20 1.68 -20 1 C-13.30324864 -0.03026944 -6.7685324 -0.10152799 0 0 Z " fill="#569095" transform="translate(236,0)"/>
<path d="M0 0 C1.35814777 4.0744433 -0.05254238 6.81468116 -1.4375 10.6875 C-1.68048828 11.38939453 -1.92347656 12.09128906 -2.17382812 12.81445312 C-2.7744944 14.54578532 -3.38619719 16.27328137 -4 18 C-4.33 18 -4.66 18 -5 18 C-4.57910004 12.39538469 -4.08386889 7.27913453 -2 2 C-1.34 2 -0.68 2 0 2 C0 1.34 0 0.68 0 0 Z " fill="#4C8A89" transform="translate(492,313)"/>
<path d="M0 0 C-2.96523513 1.97682342 -5.15841825 2.75828993 -8.5625 3.6875 C-10.01849609 4.09548828 -10.01849609 4.09548828 -11.50390625 4.51171875 C-14 5 -14 5 -16 4 C-14.75264433 3.3490741 -13.50198168 2.70448331 -12.25 2.0625 C-11.55390625 1.70285156 -10.8578125 1.34320313 -10.140625 0.97265625 C-6.39124772 -0.73098416 -3.96109827 -1.27321016 0 0 Z " fill="#35A8A0" transform="translate(221,123)"/>
<path d="M0 0 C2.31 0 4.62 0 7 0 C7.33 0.99 7.66 1.98 8 3 C8.99 3.33 9.98 3.66 11 4 C10.67 4.66 10.34 5.32 10 6 C6.51329166 4.8905928 3.22515763 3.73662334 0 2 C0 1.34 0 0.68 0 0 Z " fill="#2C7A78" transform="translate(140,474)"/>
<path d="M0 0 C1.81853256 0.92574392 3.62968883 1.86598995 5.4375 2.8125 C6.95150391 3.59560547 6.95150391 3.59560547 8.49609375 4.39453125 C11 6 11 6 12 9 C6.68972746 7.53967505 2.53669968 5.01679014 -2 2 C-1.34 1.34 -0.68 0.68 0 0 Z " fill="#4F8F8E" transform="translate(120,462)"/>
<path d="M0 0 C2.625 0.375 2.625 0.375 5 1 C5 1.66 5 2.32 5 3 C-0.47619048 8 -0.47619048 8 -3 8 C-2.25 2.25 -2.25 2.25 0 0 Z " fill="#267673" transform="translate(404,442)"/>
<path d="M0 0 C-0.33 0.99 -0.66 1.98 -1 3 C-6.07320858 5.03581546 -11.60499453 5.2295747 -17 5 C-17 4.67 -17 4.34 -17 4 C-14.91891315 3.32635339 -12.8350329 2.66133202 -10.75 2 C-9.58984375 1.62875 -8.4296875 1.2575 -7.234375 0.875 C-4 0 -4 0 0 0 Z " fill="#3B827F" transform="translate(317,436)"/>
<path d="M0 0 C-0.33 1.32 -0.66 2.64 -1 4 C-3.64 4.33 -6.28 4.66 -9 5 C-9.33 3.68 -9.66 2.36 -10 1 C-2.25 0 -2.25 0 0 0 Z " fill="#02A096" transform="translate(362,235)"/>
<path d="M0 0 C0.66 0.33 1.32 0.66 2 1 C1.44449305 4.59905908 0.25112752 5.99909799 -2.5625 8.25 C-3.20316406 8.77078125 -3.84382812 9.2915625 -4.50390625 9.828125 C-4.99761719 10.21484375 -5.49132812 10.6015625 -6 11 C-6.33 10.34 -6.66 9.68 -7 9 C-5.6875 6.375 -5.6875 6.375 -4 4 C-3.34 4 -2.68 4 -2 4 C-2 3.34 -2 2.68 -2 2 C-1.34 2 -0.68 2 0 2 C0 1.34 0 0.68 0 0 Z " fill="#41AFAB" transform="translate(203,128)"/>
<path d="M0 0 C2.475 0.495 2.475 0.495 5 1 C5 1.66 5 2.32 5 3 C6.2065625 3.3403125 6.2065625 3.3403125 7.4375 3.6875 C8.283125 4.120625 9.12875 4.55375 10 5 C10.8125 7.625 10.8125 7.625 11 10 C9.72390677 9.09066991 8.45434447 8.17217147 7.1875 7.25 C6.47980469 6.73953125 5.77210938 6.2290625 5.04296875 5.703125 C2.97022309 3.97517642 1.52624146 2.21473524 0 0 Z " fill="#488687" transform="translate(374,97)"/>
<path d="M0 0 C1.98 0 3.96 0 6 0 C6.33 0.99 6.66 1.98 7 3 C7.66 3 8.32 3 9 3 C10.625 5 10.625 5 12 7 C11.01 7.495 11.01 7.495 10 8 C8.33055479 6.85821872 6.6645052 5.71147095 5 4.5625 C4.071875 3.92441406 3.14375 3.28632812 2.1875 2.62890625 C1.465625 2.09136719 0.74375 1.55382812 0 1 C0 0.67 0 0.34 0 0 Z " fill="#417F80" transform="translate(363,89)"/>
<path d="M0 0 C0.66 0.33 1.32 0.66 2 1 C0.47947256 4.04105488 -0.48121179 5.71466648 -3.5 7.375 C-6 8 -6 8 -9 7 C-6.03 4.69 -3.06 2.38 0 0 Z " fill="#49898A" transform="translate(106,44)"/>
<path d="M0 0 C1.98 0 3.96 0 6 0 C2.53258866 2.95749791 -0.86873527 5.07848152 -5 7 C-5.66 6.01 -6.32 5.02 -7 4 C-4.35261084 2.5393715 -3.10551666 2 0 2 C0 1.34 0 0.68 0 0 Z " fill="#3F807F" transform="translate(389,455)"/>
<path d="M0 0 C5.70448549 2.42744063 5.70448549 2.42744063 7 4.9375 C7 7.43928152 6.16524739 8.81971289 5 11 C4.16151196 9.54462432 3.32936066 8.08559627 2.5 6.625 C1.80390625 5.40683594 1.80390625 5.40683594 1.09375 4.1640625 C0 2 0 2 0 0 Z " fill="#418383" transform="translate(421,152)"/>
<path d="M0 0 C0.33 0.66 0.66 1.32 1 2 C0.0625 4.125 0.0625 4.125 -1 6 C-1.66 6 -2.32 6 -3 6 C-3 6.66 -3 7.32 -3 8 C-4.98 8.33 -6.96 8.66 -9 9 C-8.67 8.34 -8.34 7.68 -8 7 C-7.34 7 -6.68 7 -6 7 C-6 6.34 -6 5.68 -6 5 C-5.34 5 -4.68 5 -4 5 C-4 4.34 -4 3.68 -4 3 C-2 1.375 -2 1.375 0 0 Z " fill="#3A7D7D" transform="translate(86,60)"/>
<path d="M0 0 C0.66 0.33 1.32 0.66 2 1 C0.68 1.33 -0.64 1.66 -2 2 C-2 2.66 -2 3.32 -2 4 C-8.625 8 -8.625 8 -12 8 C-11 5 -11 5 -8.56640625 3.578125 C-7.57511719 3.13984375 -6.58382812 2.7015625 -5.5625 2.25 C-4.57378906 1.80140625 -3.58507812 1.3528125 -2.56640625 0.890625 C-1.29603516 0.44976563 -1.29603516 0.44976563 0 0 Z " fill="#49888A" transform="translate(147,21)"/>
<path d="M0 0 C1.32 0.33 2.64 0.66 4 1 C-0.30769231 6.78461538 -0.30769231 6.78461538 -3.8125 7.875 C-4.8953125 7.936875 -4.8953125 7.936875 -6 8 C-4.02 5.36 -2.04 2.72 0 0 Z " fill="#397E7E" transform="translate(401,375)"/>
<path d="M0 0 C0.66 0.33 1.32 0.66 2 1 C1.67 4.3 1.34 7.6 1 11 C0.34 11 -0.32 11 -1 11 C-2.25 3.375 -2.25 3.375 0 0 Z " fill="#2B7474" transform="translate(494,297)"/>
<path d="M0 0 C2.3828125 -0.29296875 2.3828125 -0.29296875 5.125 -0.1875 C6.03507812 -0.16042969 6.94515625 -0.13335937 7.8828125 -0.10546875 C8.58148438 -0.07066406 9.28015625 -0.03585938 10 0 C10 0.33 10 0.66 10 1 C7.98177083 1.45572917 5.96354167 1.91145833 3.9453125 2.3671875 C1.79280036 2.90474428 1.79280036 2.90474428 0 5 C-0.40047444 7.32275177 -0.7397104 9.65739357 -1 12 C-1.33 12 -1.66 12 -2 12 C-2.05422947 10.5629191 -2.09289723 9.12524538 -2.125 7.6875 C-2.14820313 6.88699219 -2.17140625 6.08648437 -2.1953125 5.26171875 C-2 3 -2 3 0 0 Z " fill="#67C4BF" transform="translate(334,195)"/>
<path d="M0 0 C1.16161779 2.86578759 0.9946154 4.01630163 0.00390625 7.015625 C-0.70958984 8.61664063 -0.70958984 8.61664063 -1.4375 10.25 C-1.91058594 11.32765625 -2.38367188 12.4053125 -2.87109375 13.515625 C-3.24363281 14.33546875 -3.61617187 15.1553125 -4 16 C-5.1796875 14.390625 -5.1796875 14.390625 -6 12 C-4.8828125 8.984375 -4.8828125 8.984375 -3.125 5.75 C-2.55007812 4.67234375 -1.97515625 3.5946875 -1.3828125 2.484375 C-0.92648438 1.66453125 -0.47015625 0.8446875 0 0 Z " fill="#4F8C8E" transform="translate(28,132)"/>
<path d="M0 0 C-2.48434437 2.34290892 -3.77731593 2.97982934 -7.234375 3.29296875 C-8.39453125 3.25816406 -9.5546875 3.22335938 -10.75 3.1875 C-11.92046875 3.16042969 -13.0909375 3.13335937 -14.296875 3.10546875 C-15.18890625 3.07066406 -16.0809375 3.03585938 -17 3 C-17 2.67 -17 2.34 -17 2 C-11.23918159 0.7017874 -5.91260345 -0.25706972 0 0 Z " fill="#4BAEAB" transform="translate(237,119)"/>
<path d="M0 0 C5.05531868 0.77774134 10.01716284 1.85948394 15 3 C12.75700222 4.36398513 11.50929167 5.05762059 8.859375 4.7578125 C6.90625 4.171875 4.953125 3.5859375 3 3 C3 2.34 3 1.68 3 1 C2.01 0.67 1.02 0.34 0 0 Z " fill="#42817F" transform="translate(197,440)"/>
<path d="M0 0 C0.99 0 1.98 0 3 0 C1.55007731 4.10811428 -0.45407573 7.46855666 -3 11 C-3.33 11 -3.66 11 -4 11 C-4.42362933 7.39915071 -3.96714943 5.93996275 -2.1875 2.6875 C-1.465625 1.800625 -0.74375 0.91375 0 0 Z " fill="#3E7F7E" transform="translate(464,376)"/>
<path d="M0 0 C0.99 0.33 1.98 0.66 3 1 C2.814375 1.5775 2.62875 2.155 2.4375 2.75 C1.83147523 4.98119199 1.83147523 4.98119199 2.5625 7.0625 C2.706875 7.701875 2.85125 8.34125 3 9 C2.01 10.485 2.01 10.485 1 12 C0.63762737 10.37681021 0.28534843 8.7513642 -0.0625 7.125 C-0.25972656 6.22007812 -0.45695313 5.31515625 -0.66015625 4.3828125 C-1 2 -1 2 0 0 Z " fill="#267676" transform="translate(13,324)"/>
<path d="M0 0 C1.32 0 2.64 0 4 0 C2.74194623 4.50802601 1.09592835 7.4912812 -2 11 C-2.33 9.02 -2.66 7.04 -3 5 C-2.01 5.33 -1.02 5.66 0 6 C0 4.02 0 2.04 0 0 Z " fill="#408583" transform="translate(470,363)"/>
<path d="M0 0 C1.65 0 3.3 0 5 0 C4.01 0.495 4.01 0.495 3 1 C2.31513275 2.32407669 1.65129797 3.65909241 1 5 C-0.5 7.25 -0.5 7.25 -2 9 C-2.66 9 -3.32 9 -4 9 C-3.67 7.68 -3.34 6.36 -3 5 C-2.34 5 -1.68 5 -1 5 C-0.67 3.35 -0.34 1.7 0 0 Z " fill="#42ABA5" transform="translate(348,333)"/>
<path d="M0 0 C0.3125 2.1875 0.3125 2.1875 0 5 C-2.5 7.8125 -2.5 7.8125 -5 10 C-5.33 9.34 -5.66 8.68 -6 8 C-3.05263158 0 -3.05263158 0 0 0 Z " fill="#417F7F" transform="translate(435,323)"/>
<path d="M0 0 C1.32 0.99 2.64 1.98 4 3 C3.34 4.32 2.68 5.64 2 7 C2 6.34 2 5.68 2 5 C1.01 5.33 0.02 5.66 -1 6 C-1 5.34 -1 4.68 -1 4 C-2.65 4 -4.3 4 -6 4 C-6 4.66 -6 5.32 -6 6 C-6.66 6 -7.32 6 -8 6 C-7.67 5.01 -7.34 4.02 -7 3 C-4.69 3 -2.38 3 0 3 C0 2.01 0 1.02 0 0 Z " fill="#6DBFBC" transform="translate(345,196)"/>
<path d="M0 0 C0.33 0 0.66 0 1 0 C0.67 5.28 0.34 10.56 0 16 C-0.33 16 -0.66 16 -1 16 C-1.22127098 13.70954632 -1.4266504 11.41755236 -1.625 9.125 C-1.74101563 7.84882813 -1.85703125 6.57265625 -1.9765625 5.2578125 C-1.98816406 3.64519531 -1.98816406 3.64519531 -2 2 C-1.34 1.34 -0.68 0.68 0 0 Z " fill="#659C9D" transform="translate(55,217)"/>
<path d="M0 0 C3 1 3 1 4.1875 3.0625 C4.455625 3.701875 4.72375 4.34125 5 5 C3.68 6.32 2.36 7.64 1 9 C0.34 7.68 -0.32 6.36 -1 5 C-0.34 4.34 0.32 3.68 1 3 C0.67 2.01 0.34 1.02 0 0 Z " fill="#20A69F" transform="translate(372,208)"/>
<path d="M0 0 C0.33 1.32 0.66 2.64 1 4 C0.01 4.33 -0.98 4.66 -2 5 C-2.103125 5.763125 -2.20625 6.52625 -2.3125 7.3125 C-3.04364039 10.17059424 -3.76951913 11.15742885 -6 13 C-6 9.32965255 -4.9247108 7.9000569 -3 4.8125 C-2.443125 3.91144531 -1.88625 3.01039062 -1.3125 2.08203125 C-0.6628125 1.05142578 -0.6628125 1.05142578 0 0 Z " fill="#659E9D" transform="translate(36,119)"/>
<path d="M0 0 C0 0.66 0 1.32 0 2 C-6.625 5.125 -6.625 5.125 -10 4 C-6.66064924 0.50886057 -4.84725717 -0.1275594 0 0 Z " fill="#438383" transform="translate(180,65)"/>
<path d="M0 0 C0 0.66 0 1.32 0 2 C-0.99 2 -1.98 2 -3 2 C-3.33 3.65 -3.66 5.3 -4 7 C-6.97 6.505 -6.97 6.505 -10 6 C-4.4 0 -4.4 0 0 0 Z " fill="#488D8C" transform="translate(129,31)"/>
<path d="M0 0 C1.8871875 0.0309375 1.8871875 0.0309375 3.8125 0.0625 C3.8125 0.7225 3.8125 1.3825 3.8125 2.0625 C0.1825 2.3925 -3.4475 2.7225 -7.1875 3.0625 C-7.1875 2.4025 -7.1875 1.7425 -7.1875 1.0625 C-4.43671116 0.14557039 -2.82801087 -0.04636083 0 0 Z " fill="#468784" transform="translate(294.1875,494.9375)"/>
<path d="M0 0 C0.99 0.33 1.98 0.66 3 1 C2.34 2.32 1.68 3.64 1 5 C0.34 5 -0.32 5 -1 5 C-1.33 5.99 -1.66 6.98 -2 8 C-2.66 8 -3.32 8 -4 8 C-4 7.01 -4 6.02 -4 5 C-3.34 5 -2.68 5 -2 5 C-2 4.01 -2 3.02 -2 2 C-1.34 2 -0.68 2 0 2 C0 1.34 0 0.68 0 0 Z " fill="#39AAA2" transform="translate(335,346)"/>
<path d="M0 0 C4.67105792 1.55701931 8.08705685 4.08447373 12 7 C8.61976483 7 6.16531063 6.12544378 3 5 C3 4.34 3 3.68 3 3 C2.01 2.67 1.02 2.34 0 2 C0 1.34 0 0.68 0 0 Z " fill="#5DB8B4" transform="translate(361,164)"/>
<path d="M0 0 C1.17755859 0.13148438 1.17755859 0.13148438 2.37890625 0.265625 C4.4375 0.75 4.4375 0.75 6.4375 2.75 C2.96237282 3.90837573 1.30079714 3.52265943 -2.25 2.8125 C-3.24386719 2.61785156 -4.23773438 2.42320313 -5.26171875 2.22265625 C-6.02097656 2.06667969 -6.78023438 1.91070312 -7.5625 1.75 C-4.27151716 -0.44398856 -3.71417419 -0.46503664 0 0 Z " fill="#3C817E" transform="translate(310.5625,6.25)"/>
<path d="M0 0 C1.4540625 0.0309375 1.4540625 0.0309375 2.9375 0.0625 C2.9375 3.0625 2.9375 3.0625 1.9375 5.0625 C-0.53050047 3.91076645 -2.11033565 3.01466435 -4.0625 1.0625 C-3.0625 0.0625 -3.0625 0.0625 0 0 Z " fill="#317C7C" transform="translate(116.0625,457.9375)"/>
<path d="M0 0 C5.5 1.46666667 5.5 1.46666667 7.875 4 C9 6 9 6 9 8 C8.34 8 7.68 8 7 8 C7 7.34 7 6.68 7 6 C6.401875 5.7525 5.80375 5.505 5.1875 5.25 C2.71352479 3.83629988 1.56629745 2.34944617 0 0 Z " fill="#468383" transform="translate(77,431)"/>
<path d="M0 0 C0.75 1.75 0.75 1.75 1 4 C-1.39759206 7.10798971 -3.2305333 8.21436378 -7 9 C-6.21654285 7.82780457 -5.42297164 6.66236332 -4.625 5.5 C-4.18414062 4.8503125 -3.74328125 4.200625 -3.2890625 3.53125 C-2.65097656 2.77328125 -2.65097656 2.77328125 -2 2 C-1.34 2 -0.68 2 0 2 C0 1.34 0 0.68 0 0 Z " fill="#51B5B3" transform="translate(302,289)"/>
<path d="M0 0 C1.79068573 2.6860286 2.66055791 4.6626589 3.625 7.6875 C3.88539063 8.49574219 4.14578125 9.30398438 4.4140625 10.13671875 C4.60742188 10.75160156 4.80078125 11.36648438 5 12 C3.68 11.67 2.36 11.34 1 11 C0.67 7.37 0.34 3.74 0 0 Z " fill="#478B8B" transform="translate(187,268)"/>
<path d="M0 0 C4.50802601 1.25805377 7.4912812 2.90407165 11 6 C7.36029133 6.42820102 5.95430537 5.97413512 2.6875 4.125 C1.800625 3.42375 0.91375 2.7225 0 2 C0 1.34 0 0.68 0 0 Z " fill="#4E8D89" transform="translate(368,29)"/>
<path d="M0 0 C0.66 0 1.32 0 2 0 C1.34 1.65 0.68 3.3 0 5 C-0.66 5 -1.32 5 -2 5 C-2 5.66 -2 6.32 -2 7 C-3.65 7.33 -5.3 7.66 -7 8 C-5.38405168 5.95880212 -3.7143618 3.95927063 -2 2 C-1.34 2 -0.68 2 0 2 C0 1.34 0 0.68 0 0 Z " fill="#52898A" transform="translate(384,393)"/>
<path d="M0 0 C2.31 1.65 4.62 3.3 7 5 C6.67 5.66 6.34 6.32 6 7 C3.36 5.68 0.72 4.36 -2 3 C-2 2.34 -2 1.68 -2 1 C-1.34 0.67 -0.68 0.34 0 0 Z " fill="#408486" transform="translate(190,364)"/>
<path d="M0 0 C0.66 0 1.32 0 2 0 C1.67 1.32 1.34 2.64 1 4 C1.66 4 2.32 4 3 4 C3.33 5.65 3.66 7.3 4 9 C3.278125 8.360625 2.55625 7.72125 1.8125 7.0625 C-0.98191184 5.01326465 -2.61663274 4.38667054 -6 4 C-6 3.67 -6 3.34 -6 3 C-4.02 3 -2.04 3 0 3 C0 2.01 0 1.02 0 0 Z " fill="#4EB9B1" transform="translate(360,192)"/>
<path d="M0 0 C1.98 0.66 3.96 1.32 6 2 C3.11912454 4.40072955 0.43595166 6.47291037 -3 8 C-3 7.01 -3 6.02 -3 5 C-2.01 5 -1.02 5 0 5 C0 3.35 0 1.7 0 0 Z " fill="#4D878A" transform="translate(138,83)"/>
<path d="M0 0 C2.31 0.66 4.62 1.32 7 2 C7 3.32 7 4.64 7 6 C6.01 5.67 5.02 5.34 4 5 C4 4.34 4 3.68 4 3 C2.68 2.67 1.36 2.34 0 2 C0 1.34 0 0.68 0 0 Z " fill="#2D7978" transform="translate(342,17)"/>
<path d="M0 0 C1.14926266 0.95421808 2.29430541 1.91352045 3.4375 2.875 C4.07558594 3.40867187 4.71367188 3.94234375 5.37109375 4.4921875 C7 6 7 6 8 8 C6.35 7.67 4.7 7.34 3 7 C3 6.01 3 5.02 3 4 C2.01 4 1.02 4 0 4 C0 2.68 0 1.36 0 0 Z " fill="#468988" transform="translate(110,388)"/>
<path d="M0 0 C1.7074998 1.28062485 3.37373596 2.61767557 5 4 C5 4.66 5 5.32 5 6 C3.02 6.99 3.02 6.99 1 8 C0.34 5.69 -0.32 3.38 -1 1 C-0.67 0.67 -0.34 0.34 0 0 Z " fill="#277378" transform="translate(434,175)"/>
<path d="M0 0 C2.50298434 2.93828597 3.46930939 5.17902761 4 9 C3.34 9 2.68 9 2 9 C-2 3.58823529 -2 3.58823529 -2 1 C-1.34 0.67 -0.68 0.34 0 0 Z " fill="#397F7B" transform="translate(50,396)"/>
<path d="M0 0 C0.66 0.33 1.32 0.66 2 1 C1.01 4.3 0.02 7.6 -1 11 C-1.33 11 -1.66 11 -2 11 C-2 8.36 -2 5.72 -2 3 C-1.34 3 -0.68 3 0 3 C0 2.01 0 1.02 0 0 Z " fill="#56B6AE" transform="translate(371,297)"/>
<path d="M0 0 C0.33 0 0.66 0 1 0 C1.33 4.62 1.66 9.24 2 14 C-1 11 -1 11 -1.07421875 8.30078125 C-0.94660156 7.31464844 -0.81898437 6.32851563 -0.6875 5.3125 C-0.56761719 4.31863281 -0.44773438 3.32476562 -0.32421875 2.30078125 C-0.21722656 1.54152344 -0.11023437 0.78226562 0 0 Z " fill="#73A3A3" transform="translate(54,268)"/>
<path d="M0 0 C0.66 0 1.32 0 2 0 C1.25 7.75 1.25 7.75 -1 10 C-2.15837626 5.94568308 -1.83691257 3.78187881 0 0 Z " fill="#3C797D" transform="translate(63,181)"/>
<path d="M0 0 C1.37432457 3.81756824 0.67975039 7.07255329 0 11 C-0.66 11 -1.32 11 -2 11 C-2.33 11.66 -2.66 12.32 -3 13 C-2.45144652 8.428721 -1.58255197 4.32564205 0 0 Z " fill="#4A8A89" transform="translate(14,164)"/>
<path d="M0 0 C3.63 0 7.26 0 11 0 C7.96474514 2.02350324 6.80573798 2.32124018 3.3125 2.625 C2.50425781 2.69976562 1.69601562 2.77453125 0.86328125 2.8515625 C0.24839844 2.90054687 -0.36648438 2.94953125 -1 3 C-0.67 2.01 -0.34 1.02 0 0 Z " fill="#609899" transform="translate(300,493)"/>
<path d="M0 0 C1.32 0.66 2.64 1.32 4 2 C2.02 3.32 0.04 4.64 -2 6 C-2.66 5.67 -3.32 5.34 -4 5 C-3 2 -3 2 0 0 Z " fill="#468887" transform="translate(380,461)"/>
<path d="M0 0 C-0.99 0 -1.98 0 -3 0 C-3 0.66 -3 1.32 -3 2 C-6.81756824 3.37432457 -10.07255329 2.67975039 -14 2 C-14 1.67 -14 1.34 -14 1 C-12.41913952 0.63495397 -10.83516093 0.28339494 -9.25 -0.0625 C-8.36828125 -0.25972656 -7.4865625 -0.45695312 -6.578125 -0.66015625 C-4.01320972 -0.99825872 -2.42908361 -0.81158635 0 0 Z " fill="#4E8C8C" transform="translate(295,443)"/>
<path d="M0 0 C2.18975773 3.28463659 2.99806563 6.20696275 4 10 C3.34 10.66 2.68 11.32 2 12 C0.00214565 7.8794254 -0.17835515 4.54805635 0 0 Z " fill="#458887" transform="translate(67,322)"/>
<path d="M0 0 C0.99 0 1.98 0 3 0 C1.8141763 3.37503669 0.72426311 5.64722731 -2 8 C-1.125 1.125 -1.125 1.125 0 0 Z " fill="#36A59D" transform="translate(363,313)"/>
<path d="M0 0 C2.58013826 1.29006913 3.47635125 2.54891288 5 5 C5.6875 8.25 5.6875 8.25 6 11 C2.80623468 9.40311734 1.42408504 6.16616965 0 3 C0 2.01 0 1.02 0 0 Z " fill="#528888" transform="translate(134,311)"/>
<path d="M0 0 C2.40034102 3.60051153 4.32187705 6.96144535 3.625 11.375 C3.41875 11.91125 3.2125 12.4475 3 13 C3 12.34 3 11.68 3 11 C2.34 11 1.68 11 1 11 C0.67 7.37 0.34 3.74 0 0 Z " fill="#619797" transform="translate(60,302)"/>
<path d="M0 0 C0.66 0 1.32 0 2 0 C3.125 5.625 3.125 5.625 2 9 C1.34 9 0.68 9 0 9 C-0.84454356 5.62182575 -1.10844919 3.32534757 0 0 Z " fill="#337576" transform="translate(59,189)"/>
<path d="M0 0 C1 3 1 3 -0.4375 6.1875 C-1.2109375 7.5796875 -1.2109375 7.5796875 -2 9 C-2.66 9 -3.32 9 -4 9 C-3.67 7.02 -3.34 5.04 -3 3 C-2.34 3 -1.68 3 -1 3 C-0.67 2.01 -0.34 1.02 0 0 Z " fill="#3B7C7C" transform="translate(55,92)"/>
<path d="M0 0 C0.99 0.33 1.98 0.66 3 1 C3 1.66 3 2.32 3 3 C3.639375 3.28875 4.27875 3.5775 4.9375 3.875 C7 5 7 5 8 7 C6.35 6.67 4.7 6.34 3 6 C2.67 4.68 2.34 3.36 2 2 C1.34 2 0.68 2 0 2 C0 1.34 0 0.68 0 0 Z " fill="#549193" transform="translate(420,66)"/>
<path d="M0 0 C-2.63904371 1.41377341 -5.07120629 2.37240135 -8 3 C-8.33 2.01 -8.66 1.02 -9 0 C-5.93109813 -1.53445094 -3.29905734 -0.54984289 0 0 Z " fill="#478586" transform="translate(195,61)"/>
<path d="M0 0 C4.24822374 0.47202486 6.19989709 2.96655518 9 6 C4.58763974 6 3.21615077 3.9302707 0 1 C0 0.67 0 0.34 0 0 Z " fill="#468181" transform="translate(86,439)"/>
<path d="M0 0 C0.66 0 1.32 0 2 0 C3.35439668 2.70879335 3.06501451 5.00933268 3 8 C0.9375 5.6875 0.9375 5.6875 -1 3 C-0.67 2.01 -0.34 1.02 0 0 Z " fill="#428385" transform="translate(33,372)"/>
<path d="M0 0 C1.98 1.65 3.96 3.3 6 5 C3.92446352 5.5534764 2.15634036 6 0 6 C0 4.02 0 2.04 0 0 Z " fill="#519593" transform="translate(200,292)"/>
<path d="M0 0 C0.66 0 1.32 0 2 0 C2.66 2.31 3.32 4.62 4 7 C3.01 7.495 3.01 7.495 2 8 C2 7.34 2 6.68 2 6 C1.34 6 0.68 6 0 6 C-0.38218767 4.34385343 -0.71395102 2.67542976 -1 1 C-0.67 0.67 -0.34 0.34 0 0 Z " fill="#3CA6A0" transform="translate(330,220)"/>
<path d="M0 0 C0.99 0.495 0.99 0.495 2 1 C1.67 1.66 1.34 2.32 1 3 C0.67 2.01 0.34 1.02 0 0 Z M11 1 C8.08517222 1.80967438 6.53886783 2.21845993 3.6875 1.0625 C3.130625 0.711875 2.57375 0.36125 2 0 C5.77897651 -1.0497157 7.64919071 -1.10976881 11 1 Z " fill="#08625F" transform="translate(298,492)"/>
<path d="M0 0 C0.33 1.32 0.66 2.64 1 4 C-1.31 4 -3.62 4 -6 4 C-5.34 3.67 -4.68 3.34 -4 3 C-4 2.34 -4 1.68 -4 1 C-2 0 -2 0 0 0 Z " fill="#089C91" transform="translate(272,376)"/>
<path d="M0 0 C0.99 0.33 1.98 0.66 3 1 C1.8125 2.5 1.8125 2.5 0 4 C-2.6875 4.1875 -2.6875 4.1875 -5 4 C-3.36587557 2.29159719 -2.13093906 1.06546953 0 0 Z " fill="#42ADA7" transform="translate(287,304)"/>
<path d="M0 0 C-1.25 1.5625 -1.25 1.5625 -3 3 C-5.1875 2.6875 -5.1875 2.6875 -7 2 C-7 1.34 -7 0.68 -7 0 C-3.98968256 -0.93423645 -3.13349732 -1.04449911 0 0 Z " fill="#34A5A2" transform="translate(353,196)"/>
<path d="M0 0 C0.66 0.66 1.32 1.32 2 2 C-1.75 5 -1.75 5 -4 5 C-4 3.68 -4 2.36 -4 1 C-2.125 0.375 -2.125 0.375 0 0 Z " fill="#1F716E" transform="translate(390,390)"/>
<path d="M0 0 C0.66 1.32 1.32 2.64 2 4 C1.34 4.66 0.68 5.32 0 6 C-0.99 6 -1.98 6 -3 6 C-1.125 1.125 -1.125 1.125 0 0 Z " fill="#428988" transform="translate(409,365)"/>
<path d="M0 0 C4 4.625 4 4.625 4 8 C3.01 8 2.02 8 1 8 C0.67 5.36 0.34 2.72 0 0 Z " fill="#498A89" transform="translate(192,280)"/>
<path d="M0 0 C1.98 0.99 1.98 0.99 4 2 C3.34 3.98 2.68 5.96 2 8 C0 6 0 6 -0.125 2.875 C-0.08375 1.92625 -0.0425 0.9775 0 0 Z " fill="#317876" transform="translate(123,281)"/>
<path d="M0 0 C0.33 1.32 0.66 2.64 1 4 C0.01 5.485 0.01 5.485 -1 7 C-0.01 7.33 0.98 7.66 2 8 C0.35 8.33 -1.3 8.66 -3 9 C-2.01 6.03 -1.02 3.06 0 0 Z " fill="#5D9697" transform="translate(20,149)"/>
<path d="M0 0 C1.65 0 3.3 0 5 0 C5.33 1.98 5.66 3.96 6 6 C3.97945196 4.35830472 1.97956942 2.69088222 0 1 C0 0.67 0 0.34 0 0 Z " fill="#609E9E" transform="translate(387,109)"/>
</svg>
